# xmcd
# 
# Track frame offsets:
#     150
#     12122
#     25475
#     40405
#     55530
#     68922
#     84230
#     101197
#     121475
#     135520
#     149407
#     171345
#     184642
#     196012
# 
# Disc length: 2792
# 
# Revision: 7
# Processed by: cddbd v1.5.2PL0 Copyright (c) Steve Scherf et al.
# Submitted via: fre:ac v1.0.17
# 
DISCID=bc0ae60e
DTITLE=Various Artist - New Country July 1995
DYEAR=1995
DGENRE=Country
TTITLE0=Kenny Chesney - Fall In Love
TTITLE1=Steve Forbert - It Sure Was Better Back Then
TTITLE2=Lonnie Morgan - I Didn't Know My Own Strength
TTITLE3=Jason and The Scorchers - Cry By Night Operator
TTITLE4=Terry Anderson - Weather Or Not
TTITLE5=Kate Jacobs - A Sister
TTITLE6=Rodney Crowell - Please Remember Me
TTITLE7=The Grass Is Greener - Northern White Clouds
TTITLE8=Grant McLennan - Don't You Cry For Me No More
TTITLE9=Claire Lynch - Second Wind
TTITLE10=Dennis Brennan - Theresa
TTITLE11=Jeff Easter and Sherri Easter - Let The Little Things Go
TTITLE12=Jill Morris - Bedroom Promises
TTITLE13=Ronnie Lee Keel - Last Call
EXTD=
EXTT0=
EXTT1=
EXTT2=
EXTT3=
EXTT4=
EXTT5=
EXTT6=
EXTT7=
EXTT8=
EXTT9=
EXTT10=
EXTT11=
EXTT12=
EXTT13=
PLAYORDER=
